<svg width="194" height="38" viewBox="0 0 194 38" fill="none" xmlns="http://www.w3.org/2000/svg">
<g clip-path="url(#clip0_510_36)">
<path fill-rule="evenodd" clip-rule="evenodd" d="M21.9152 17.4517L33.4177 5.94919L32.65 5.18147L21.1424 16.6891L27.3701 1.65284L26.367 1.23738L20.1405 16.2707V0H19.0547V16.2707L12.8282 1.23738L11.8251 1.65284L18.0508 16.6838L6.54831 5.18147L5.78059 5.94919L17.283 17.4516L2.25196 11.226L1.8365 12.2291L16.8699 18.4556H0.599121V19.5413H16.8699L1.8365 25.7679L2.25196 26.771L17.2882 20.5432L5.78059 32.0508L6.54831 32.8185L18.0508 21.316L11.8251 36.3472L12.8282 36.7626L19.0547 21.7293V38H20.1405V21.7293L26.367 36.7626L27.3701 36.3472L21.1424 21.3109L32.65 32.8185L33.4177 32.0508L21.9101 20.5432L36.9463 26.771L37.3617 25.7679L22.3284 19.5413H38.5991V18.4556H22.3284L37.3617 12.2291L36.9463 11.226L21.9152 17.4517Z" fill="white"/>
<path d="M68.8111 10.812V30.356H64.8911V22.04H56.5191V30.356H52.5991V10.812H56.5191V18.848H64.8911V10.812H68.8111Z" fill="white"/>
<path d="M79.5574 30.608C78.0641 30.608 76.7201 30.2813 75.5254 29.628C74.3308 28.956 73.3881 28.0133 72.6974 26.8C72.0254 25.5867 71.6894 24.1867 71.6894 22.6C71.6894 21.0133 72.0348 19.6133 72.7254 18.4C73.4348 17.1867 74.3961 16.2533 75.6094 15.6C76.8228 14.928 78.1761 14.592 79.6694 14.592C81.1628 14.592 82.5161 14.928 83.7294 15.6C84.9427 16.2533 85.8947 17.1867 86.5854 18.4C87.2947 19.6133 87.6494 21.0133 87.6494 22.6C87.6494 24.1867 87.2854 25.5867 86.5574 26.8C85.8481 28.0133 84.8774 28.956 83.6454 29.628C82.4321 30.2813 81.0694 30.608 79.5574 30.608ZM79.5574 27.192C80.2668 27.192 80.9294 27.024 81.5454 26.688C82.1801 26.3333 82.6841 25.8107 83.0574 25.12C83.4307 24.4293 83.6174 23.5893 83.6174 22.6C83.6174 21.1253 83.2254 19.996 82.4414 19.212C81.6761 18.4093 80.7334 18.008 79.6134 18.008C78.4934 18.008 77.5508 18.4093 76.7854 19.212C76.0387 19.996 75.6654 21.1253 75.6654 22.6C75.6654 24.0747 76.0294 25.2133 76.7574 26.016C77.5041 26.8 78.4374 27.192 79.5574 27.192Z" fill="white"/>
<path d="M105.169 14.844V30.356H101.221V28.396C100.717 29.068 100.054 29.6 99.2329 29.992C98.4302 30.3653 97.5529 30.552 96.6009 30.552C95.3875 30.552 94.3142 30.3 93.3809 29.796C92.4475 29.2733 91.7102 28.5173 91.1689 27.528C90.6462 26.52 90.3849 25.3253 90.3849 23.944V14.844H94.3049V23.384C94.3049 24.616 94.6129 25.568 95.2289 26.24C95.8449 26.8933 96.6849 27.22 97.7489 27.22C98.8315 27.22 99.6809 26.8933 100.297 26.24C100.913 25.568 101.221 24.616 101.221 23.384V14.844H105.169Z" fill="white"/>
<path d="M112.957 17.252C113.461 16.4307 114.114 15.7867 114.917 15.32C115.738 14.8533 116.671 14.62 117.717 14.62V18.736H116.681C115.449 18.736 114.515 19.0253 113.881 19.604C113.265 20.1827 112.957 21.1907 112.957 22.628V30.356H109.037V14.844H112.957V17.252Z" fill="white"/>
<path d="M126.433 14.592C127.59 14.592 128.608 14.8253 129.485 15.292C130.362 15.74 131.053 16.328 131.557 17.056V14.844H135.505V30.468C135.505 31.9053 135.216 33.184 134.637 34.304C134.058 35.4427 133.19 36.3387 132.033 36.992C130.876 37.664 129.476 38 127.833 38C125.63 38 123.82 37.4867 122.401 36.46C121.001 35.4333 120.208 34.0333 120.021 32.26H123.913C124.118 32.9693 124.557 33.5293 125.229 33.94C125.92 34.3693 126.75 34.584 127.721 34.584C128.86 34.584 129.784 34.2387 130.493 33.548C131.202 32.876 131.557 31.8493 131.557 30.468V28.06C131.053 28.788 130.353 29.3947 129.457 29.88C128.58 30.3653 127.572 30.608 126.433 30.608C125.126 30.608 123.932 30.272 122.849 29.6C121.766 28.928 120.908 27.9853 120.273 26.772C119.657 25.54 119.349 24.1307 119.349 22.544C119.349 20.976 119.657 19.5853 120.273 18.372C120.908 17.1587 121.757 16.2253 122.821 15.572C123.904 14.9187 125.108 14.592 126.433 14.592ZM131.557 22.6C131.557 21.648 131.37 20.836 130.997 20.164C130.624 19.4733 130.12 18.9507 129.485 18.596C128.85 18.2227 128.169 18.036 127.441 18.036C126.713 18.036 126.041 18.2133 125.425 18.568C124.809 18.9227 124.305 19.4453 123.913 20.136C123.54 20.808 123.353 21.6107 123.353 22.544C123.353 23.4773 123.54 24.2987 123.913 25.008C124.305 25.6987 124.809 26.2307 125.425 26.604C126.06 26.9773 126.732 27.164 127.441 27.164C128.169 27.164 128.85 26.9867 129.485 26.632C130.12 26.2587 130.624 25.736 130.997 25.064C131.37 24.3733 131.557 23.552 131.557 22.6Z" fill="white"/>
<path d="M143.253 9.636V30.356H139.333V9.636H143.253Z" fill="white"/>
<path d="M146.118 22.544C146.118 20.976 146.426 19.5853 147.042 18.372C147.677 17.1587 148.526 16.2253 149.59 15.572C150.673 14.9187 151.877 14.592 153.202 14.592C154.36 14.592 155.368 14.8253 156.226 15.292C157.104 15.7587 157.804 16.3467 158.326 17.056V14.844H162.274V30.356H158.326V28.088C157.822 28.816 157.122 29.4227 156.226 29.908C155.349 30.3747 154.332 30.608 153.174 30.608C151.868 30.608 150.673 30.272 149.59 29.6C148.526 28.928 147.677 27.9853 147.042 26.772C146.426 25.54 146.118 24.1307 146.118 22.544ZM158.326 22.6C158.326 21.648 158.14 20.836 157.766 20.164C157.393 19.4733 156.889 18.9507 156.254 18.596C155.62 18.2227 154.938 18.036 154.21 18.036C153.482 18.036 152.81 18.2133 152.194 18.568C151.578 18.9227 151.074 19.4453 150.682 20.136C150.309 20.808 150.122 21.6107 150.122 22.544C150.122 23.4773 150.309 24.2987 150.682 25.008C151.074 25.6987 151.578 26.2307 152.194 26.604C152.829 26.9773 153.501 27.164 154.21 27.164C154.938 27.164 155.62 26.9867 156.254 26.632C156.889 26.2587 157.393 25.736 157.766 25.064C158.14 24.3733 158.326 23.552 158.326 22.6Z" fill="white"/>
<path d="M172.039 30.608C170.77 30.608 169.631 30.384 168.623 29.936C167.615 29.4693 166.812 28.844 166.215 28.06C165.636 27.276 165.319 26.408 165.263 25.456H169.211C169.286 26.0533 169.575 26.548 170.079 26.94C170.602 27.332 171.246 27.528 172.011 27.528C172.758 27.528 173.336 27.3787 173.747 27.08C174.176 26.7813 174.391 26.3987 174.391 25.932C174.391 25.428 174.13 25.0547 173.607 24.812C173.103 24.5507 172.291 24.2707 171.171 23.972C170.014 23.692 169.062 23.4027 168.315 23.104C167.587 22.8053 166.952 22.348 166.411 21.732C165.888 21.116 165.627 20.2853 165.627 19.24C165.627 18.3813 165.87 17.5973 166.355 16.888C166.859 16.1787 167.568 15.6187 168.483 15.208C169.416 14.7973 170.508 14.592 171.759 14.592C173.607 14.592 175.082 15.0587 176.183 15.992C177.284 16.9067 177.891 18.148 178.003 19.716H174.251C174.195 19.1 173.934 18.6147 173.467 18.26C173.019 17.8867 172.412 17.7 171.647 17.7C170.938 17.7 170.387 17.8307 169.995 18.092C169.622 18.3533 169.435 18.7173 169.435 19.184C169.435 19.7067 169.696 20.108 170.219 20.388C170.742 20.6493 171.554 20.92 172.655 21.2C173.775 21.48 174.699 21.7693 175.427 22.068C176.155 22.3667 176.78 22.8333 177.303 23.468C177.844 24.084 178.124 24.9053 178.143 25.932C178.143 26.828 177.891 27.6307 177.387 28.34C176.902 29.0493 176.192 29.6093 175.259 30.02C174.344 30.412 173.271 30.608 172.039 30.608Z" fill="white"/>
<path d="M187.297 30.608C186.027 30.608 184.889 30.384 183.881 29.936C182.873 29.4693 182.07 28.844 181.473 28.06C180.894 27.276 180.577 26.408 180.521 25.456H184.469C184.543 26.0533 184.833 26.548 185.337 26.94C185.859 27.332 186.503 27.528 187.269 27.528C188.015 27.528 188.594 27.3787 189.005 27.08C189.434 26.7813 189.649 26.3987 189.649 25.932C189.649 25.428 189.387 25.0547 188.865 24.812C188.361 24.5507 187.549 24.2707 186.429 23.972C185.271 23.692 184.319 23.4027 183.573 23.104C182.845 22.8053 182.21 22.348 181.669 21.732C181.146 21.116 180.885 20.2853 180.885 19.24C180.885 18.3813 181.127 17.5973 181.613 16.888C182.117 16.1787 182.826 15.6187 183.741 15.208C184.674 14.7973 185.766 14.592 187.017 14.592C188.865 14.592 190.339 15.0587 191.441 15.992C192.542 16.9067 193.149 18.148 193.261 19.716H189.509C189.453 19.1 189.191 18.6147 188.725 18.26C188.277 17.8867 187.67 17.7 186.905 17.7C186.195 17.7 185.645 17.8307 185.253 18.092C184.879 18.3533 184.693 18.7173 184.693 19.184C184.693 19.7067 184.954 20.108 185.477 20.388C185.999 20.6493 186.811 20.92 187.913 21.2C189.033 21.48 189.957 21.7693 190.685 22.068C191.413 22.3667 192.038 22.8333 192.561 23.468C193.102 24.084 193.382 24.9053 193.401 25.932C193.401 26.828 193.149 27.6307 192.645 28.34C192.159 29.0493 191.45 29.6093 190.517 30.02C189.602 30.412 188.529 30.608 187.297 30.608Z" fill="white"/>
</g>
<defs>
<clipPath id="clip0_510_36">
<rect width="192.802" height="38" fill="white" transform="translate(0.599121)"/>
</clipPath>
</defs>
</svg>
