<svg width="51" height="51" viewBox="0 0 51 51" fill="none" xmlns="http://www.w3.org/2000/svg">
<path d="M0.5 7.2998H43.7V50.4998H0.5V7.2998Z" stroke="white"/>
<path d="M0.5 7.2998H43.7V50.4998H0.5V7.2998Z" stroke="white"/>
<path d="M0.5 7.2998H43.7V50.4998H0.5V7.2998Z" stroke="white"/>
<path d="M0.5 13.25H37.75V50.5H0.5V13.25Z" stroke="white"/>
<path d="M0.5 13.25H37.75V50.5H0.5V13.25Z" stroke="white"/>
<path d="M0.5 13.25H37.75V50.5H0.5V13.25Z" stroke="white"/>
<path d="M0.5 20.8999H30.1V50.4999H0.5V20.8999Z" stroke="white"/>
<path d="M0.5 20.8999H30.1V50.4999H0.5V20.8999Z" stroke="white"/>
<path d="M0.5 20.8999H30.1V50.4999H0.5V20.8999Z" stroke="white"/>
<path d="M0.5 26.8501H24.15V50.5001H0.5V26.8501Z" stroke="white"/>
<path d="M0.5 26.8501H24.15V50.5001H0.5V26.8501Z" stroke="white"/>
<path d="M0.5 26.8501H24.15V50.5001H0.5V26.8501Z" stroke="white"/>
<path d="M0.5 32.7998H18.2V50.4998H0.5V32.7998Z" stroke="white"/>
<path d="M0.5 32.7998H18.2V50.4998H0.5V32.7998Z" stroke="white"/>
<path d="M0.5 32.7998H18.2V50.4998H0.5V32.7998Z" stroke="white"/>
<path d="M0.5 38.75H12.25V50.5H0.5V38.75Z" stroke="white"/>
<path d="M0.5 38.75H12.25V50.5H0.5V38.75Z" stroke="white"/>
<path d="M0.5 38.75H12.25V50.5H0.5V38.75Z" stroke="white"/>
<path d="M0.5 0.5H50.5V50.5H0.5V0.5Z" stroke="white"/>
<path d="M0.5 0.5H50.5V50.5H0.5V0.5Z" stroke="white"/>
<path d="M0.5 0.5H50.5V50.5H0.5V0.5Z" stroke="white"/>
</svg>
