<svg width="97" height="18" viewBox="0 0 97 18" fill="none" xmlns="http://www.w3.org/2000/svg">
<path d="M95.0986 15.6992L83.4385 3.88281V15.6992H82.2178V2.28125H83.5654L95.2256 14.1367V2.28125H96.4268V15.6992H95.0986Z" fill="#FEFEFE"/>
<path d="M63.1201 15.6992V2.28125H74.3018V3.42383H64.4482V8.04297H73.8037V9.17578H64.4482V14.5566H74.4482V15.6992H63.1201Z" fill="#FEFEFE"/>
<path d="M50.3799 3.39453V15.6992H49.1689V3.39453H43.0654V2.28125H56.4834V3.39453H50.3799Z" fill="#FEFEFE"/>
<path d="M36.0381 4.26367C35.7842 4.13997 35.4912 4.00977 35.1592 3.87305C34.8271 3.72982 34.4463 3.60286 34.0166 3.49219C33.5934 3.38151 33.1149 3.29036 32.5811 3.21875C32.0472 3.14062 31.4548 3.10156 30.8037 3.10156C30.016 3.10156 29.3128 3.14714 28.6943 3.23828C28.0824 3.32943 27.5615 3.47266 27.1318 3.66797C26.7087 3.85677 26.3831 4.09766 26.1553 4.39062C25.9339 4.68359 25.8232 5.0319 25.8232 5.43555C25.8232 5.77409 25.9274 6.07031 26.1357 6.32422C26.3506 6.57812 26.637 6.80273 26.9951 6.99805C27.3597 7.19336 27.7829 7.3724 28.2646 7.53516C28.7529 7.69141 29.2673 7.84115 29.8076 7.98438C30.3545 8.12109 30.9144 8.26107 31.4873 8.4043C32.0667 8.54753 32.6266 8.70378 33.167 8.87305C33.7139 9.03581 34.2282 9.22135 34.71 9.42969C35.1982 9.63151 35.6214 9.86914 35.9795 10.1426C36.3441 10.416 36.6305 10.7285 36.8389 11.0801C37.0537 11.4316 37.1611 11.8385 37.1611 12.3008C37.1611 12.8021 37.0667 13.2415 36.8779 13.6191C36.6891 13.9902 36.432 14.3125 36.1064 14.5859C35.7874 14.8529 35.4098 15.0775 34.9736 15.2598C34.5439 15.4355 34.0817 15.5755 33.5869 15.6797C33.0986 15.7839 32.5908 15.8555 32.0635 15.8945C31.5426 15.9401 31.0283 15.9629 30.5205 15.9629C29.3551 15.9629 28.2972 15.8783 27.3467 15.709C26.4027 15.5397 25.501 15.3086 24.6416 15.0156V13.5215C25.527 14.0488 26.4613 14.4102 27.4443 14.6055C28.4339 14.8008 29.4723 14.8984 30.5596 14.8984C31.3278 14.8984 32.0374 14.8529 32.6885 14.7617C33.3395 14.6706 33.9027 14.5273 34.3779 14.332C34.8532 14.1302 35.221 13.8698 35.4814 13.5508C35.7484 13.2318 35.8818 12.8411 35.8818 12.3789C35.8818 12.0078 35.7744 11.6823 35.5596 11.4023C35.3512 11.1224 35.0648 10.8783 34.7002 10.6699C34.3421 10.4551 33.9189 10.2663 33.4307 10.1035C32.9489 9.94076 32.4378 9.79102 31.8975 9.6543C31.3571 9.51107 30.7972 9.37435 30.2178 9.24414C29.6449 9.10742 29.0882 8.96094 28.5479 8.80469C28.0075 8.64844 27.4932 8.47266 27.0049 8.27734C26.5231 8.08203 26.0999 7.85417 25.7354 7.59375C25.3773 7.32682 25.0908 7.02083 24.876 6.67578C24.6676 6.33073 24.5635 5.93034 24.5635 5.47461C24.5635 5.02539 24.6481 4.62826 24.8174 4.2832C24.9867 3.93164 25.2178 3.62891 25.5107 3.375C25.8102 3.12109 26.1585 2.90951 26.5557 2.74023C26.9528 2.56445 27.376 2.42773 27.8252 2.33008C28.2809 2.22591 28.7529 2.15104 29.2412 2.10547C29.7295 2.0599 30.2113 2.03711 30.6865 2.03711C31.2074 2.03711 31.6989 2.0599 32.1611 2.10547C32.6299 2.15104 33.0791 2.21289 33.5088 2.29102C33.945 2.36263 34.3682 2.44727 34.7783 2.54492C35.195 2.64258 35.6149 2.74674 36.0381 2.85742V4.26367Z" fill="#FEFEFE"/>
<path d="M17.6143 9C17.6143 10.2044 17.3962 11.2461 16.96 12.125C16.5238 12.9974 15.9248 13.7201 15.1631 14.293C14.4014 14.8594 13.5029 15.2793 12.4678 15.5527C11.4326 15.8262 10.3161 15.9629 9.11816 15.9629C8.389 15.9629 7.69564 15.9108 7.03809 15.8066C6.38053 15.709 5.75879 15.5658 5.17285 15.377L3.67871 17.4766H2.41895L4.19629 14.9961C3.6429 14.7357 3.1416 14.4167 2.69238 14.0391C2.24967 13.6549 1.86882 13.2155 1.5498 12.7207C1.2373 12.2194 0.996419 11.6595 0.827148 11.041C0.657878 10.4225 0.573242 9.74219 0.573242 9C0.573242 8.19922 0.674154 7.47331 0.875977 6.82227C1.0778 6.16471 1.361 5.57878 1.72559 5.06445C2.09017 4.54362 2.52962 4.0944 3.04395 3.7168C3.56478 3.33919 4.14095 3.02669 4.77246 2.7793C5.41048 2.52539 6.09408 2.33984 6.82324 2.22266C7.55241 2.09896 8.31738 2.03711 9.11816 2.03711C10.5505 2.03711 11.8623 2.23893 13.0537 2.64258L14.5771 0.523438H15.8174L14.0107 3.02344C14.5641 3.29036 15.0622 3.61263 15.5049 3.99023C15.9476 4.36784 16.3252 4.80404 16.6377 5.29883C16.9502 5.79362 17.1911 6.35026 17.3604 6.96875C17.5296 7.58073 17.6143 8.25781 17.6143 9ZM12.3994 3.54102C11.4814 3.26107 10.3877 3.12109 9.11816 3.12109C7.92676 3.12109 6.87533 3.2513 5.96387 3.51172C5.05892 3.77214 4.30046 4.15299 3.68848 4.6543C3.0765 5.14909 2.61426 5.76432 2.30176 6.5C1.98926 7.22917 1.83301 8.0625 1.83301 9C1.83301 10.2305 2.08366 11.2689 2.58496 12.1152C3.09277 12.9616 3.84798 13.6159 4.85059 14.0781L5.93457 12.584L12.3994 3.54102ZM5.83691 14.459C6.76139 14.7389 7.85514 14.8789 9.11816 14.8789C10.3096 14.8789 11.3545 14.752 12.2529 14.498C13.1579 14.2376 13.9131 13.86 14.5186 13.3652C15.124 12.8639 15.5798 12.2487 15.8857 11.5195C16.1982 10.7904 16.3545 9.95052 16.3545 9C16.3545 7.78255 16.1038 6.75065 15.6025 5.9043C15.1077 5.05143 14.3656 4.39062 13.376 3.92188L12.292 5.41602L5.83691 14.459Z" fill="#FEFEFE"/>
</svg>
