<svg width="40" height="28" viewBox="0 0 40 28" fill="none" xmlns="http://www.w3.org/2000/svg">
<path fill-rule="evenodd" clip-rule="evenodd" d="M5 0C3.67392 0 2.40215 0.491665 1.46447 1.36683C0.526784 2.242 0 3.42899 0 4.66667V11.6667C0 14.2333 2.25 16.3333 5 16.3333H12.5C12.5 18.1898 11.7098 19.9703 10.3033 21.2831C8.89678 22.5958 6.98912 23.3333 5 23.3333H2.5C1.83696 23.3333 1.20107 23.5792 0.732234 24.0167C0.263393 24.4543 0 25.0478 0 25.6667C0 26.2855 0.263393 26.879 0.732234 27.3166C1.20107 27.7542 1.83696 28 2.5 28H5C8.31521 28 11.4946 26.7708 13.8388 24.5829C16.183 22.395 17.5 19.4275 17.5 16.3333V4.66667C17.5 3.42899 16.9732 2.242 16.0355 1.36683C15.0979 0.491665 13.8261 0 12.5 0H5ZM27.5 0C26.1739 0 24.9021 0.491665 23.9645 1.36683C23.0268 2.242 22.5 3.42899 22.5 4.66667V11.6667C22.5 14.2333 24.75 16.3333 27.5 16.3333H35C35 18.1898 34.2098 19.9703 32.8033 21.2831C31.3968 22.5958 29.4891 23.3333 27.5 23.3333H25C24.337 23.3333 23.7011 23.5792 23.2322 24.0167C22.7634 24.4543 22.5 25.0478 22.5 25.6667C22.5 26.2855 22.7634 26.879 23.2322 27.3166C23.7011 27.7542 24.337 28 25 28H27.5C30.8152 28 33.9946 26.7708 36.3388 24.5829C38.683 22.395 40 19.4275 40 16.3333V4.66667C40 3.42899 39.4732 2.242 38.5355 1.36683C37.5979 0.491665 36.3261 0 35 0H27.5Z" fill="#FEFEFE"/>
</svg>
